<?xml version="1.0" encoding="UTF-8" standalone="no"?>
<!-- Created with Inkscape (http://www.inkscape.org/) -->

<svg
   width="839"
   height="839"
   viewBox="0 0 221.98541 221.98542"
   version="1.1"
   id="svg17529"
   sodipodi:docname="paddle_simple_plain.svg"
   inkscape:version="1.2.2 (b0a8486, 2022-12-01)"
   xmlns:inkscape="http://www.inkscape.org/namespaces/inkscape"
   xmlns:sodipodi="http://sodipodi.sourceforge.net/DTD/sodipodi-0.dtd"
   xmlns="http://www.w3.org/2000/svg"
   xmlns:svg="http://www.w3.org/2000/svg">
  <sodipodi:namedview
     id="namedview17531"
     pagecolor="#ffffff"
     bordercolor="#666666"
     borderopacity="1.0"
     inkscape:showpageshadow="2"
     inkscape:pageopacity="0.0"
     inkscape:pagecheckerboard="0"
     inkscape:deskcolor="#d1d1d1"
     inkscape:document-units="mm"
     showgrid="false"
     inkscape:zoom="0.66057849"
     inkscape:cx="367.85939"
     inkscape:cy="182.41587"
     inkscape:window-width="1631"
     inkscape:window-height="1119"
     inkscape:window-x="54"
     inkscape:window-y="25"
     inkscape:window-maximized="0"
     inkscape:current-layer="svg17529" />
  <defs
     id="defs17526" />
  <path
     style="display:inline;fill:#ffa500;fill-opacity:1;stroke:none;stroke-width:0.264583px;stroke-linecap:butt;stroke-linejoin:miter;stroke-opacity:1"
     d="m 75.753165,86.016683 c 0,0 -0.2787,-10.06525 26.995015,-17.28915 33.62139,-8.905204 72.02012,-4.94975 91.94941,4.3327 19.9293,9.28245 28.81047,17.68222 27.05527,29.269747 -1.77957,11.20461 0.0251,-0.13288 -1.34794,7.12488 0,0 -2.60694,21.62977 -53.72542,28.01809 -20.01427,2.5012 -38.99426,-4.71782 -38.99426,-4.71782 L 75.851245,96.300293 Z"
     id="path15310"
     sodipodi:nodetypes="cszccsccc" />
  <path
     style="display:inline;fill:#bbbbbb;fill-opacity:1;stroke:none;stroke-width:0.264583px;stroke-linecap:butt;stroke-linejoin:miter;stroke-opacity:1"
     d="m 1.2513869,126.08261 c 0,0 71.3984281,-22.59675 74.3430481,-23.6007 2.94462,-1.00395 1.46766,-10.270367 1.46766,-10.270367 l 51.196015,33.355817 v 4.96978 c 0,0 -24.98707,-6.84741 -29.417913,-5.61104 -28.385622,11.06353 -57.143115,22.36264 -85.592656,33.23793 z"
     id="path15240"
     sodipodi:nodetypes="czcccccc" />
  <path
     style="display:inline;fill:#999999;fill-opacity:1;stroke:none;stroke-width:0.264583px;stroke-linecap:butt;stroke-linejoin:miter;stroke-opacity:1"
     d="m 2.6420359,126.82952 c 6.2503392,6.84925 2.745432,2.67014 7.1895022,7.98833 4.4440699,5.3182 4.3700899,12.78134 4.3700899,12.78134 l 0.140971,5.77979 c 0,0 0.280557,7.9228 -3.289315,3.57126 -3.5698709,-4.35154 -3.5260489,-4.34016 -7.0485321,-8.74018 -3.522483,-4.40002 -3.759218,-12.12347 -3.759218,-12.12347 l -0.234951,-4.51107 c 0,0 -0.325321,-7.98609 2.631453,-4.746 z"
     id="path15104"
     sodipodi:nodetypes="szcczzccs" />
  <circle
     style="fill:#ffffff;fill-opacity:1;stroke:none;stroke-width:0.499999;stroke-linecap:round;stroke-linejoin:round;stroke-miterlimit:0"
     id="path22029"
     cx="136.98219"
     cy="86.11454"
     r="14.018646" />
</svg>
